{"title":"Ittisoontorn Vichailak - The.Overture.2004.DVDRip.x264-HANDJOB","uid":8666895,"size":1930091344,"categoryP":"video","categoryS":"movies","magnet":"?xt=urn:btih:8910b73b71f2eeefe78be024dfc0b20f6b6a4b15&amp;dn=Ittisoontorn+Vichailak+-+The.Overture.2004.DVDRip.x264-HANDJOB&amp;tr=udp%3A%2F%2Ftracker.openbittorrent.com%3A80&amp;tr=udp%3A%2F%2Fopen.demonii.com%3A1337&amp;tr=udp%3A%2F%2Ftracker.coppersurfer.tk%3A6969&amp;tr=udp%3A%2F%2Fexodus.desync.com%3A6969","seeders":1,"leechers":3,"uploader":"rpessoa","files":1,"time":1373416489,"description":"Based on the life of Luang Pradit Pairoh (Sorn Silapabanleng) the most revered traditional Thai music master who lived during the reigns of Kings Rama V to VIII, the movie traces the life of Sorn, who picked up the ra-nad ek (Thai xylophone) mallets as a small child and played all his life. The backdrop to Sorn's life tale is the story of Thailand's classical music from its golden age during the reign of King Rama V to near extinction after the end of the absolute monarchy when the government banned it as uncivilised in the 1930s -- a time when Field Marshall Plaek Pibulsongkram tried to push the Kingdom into the modern era. The film shifts back and forth from the time when Sorn was a young man, playing in a xylophone duel with the intense Kun In, to the 1940s, when Thailand was under Japanese occupation and Sorn's playing would provide some inspiration to the oppressed citizenry of the time. Written by Wise Kwai\n &lt;a href=&quot;\nhttp://www.imdb.com/title/tt0415046/&quot; rel=&quot;nofollow&quot; target=&quot;_NEW&quot;&gt;\nhttp://www.imdb.com/title/tt0415046/&lt;/a&gt;\n\nGeneral \nUnique ID : 21847336060512296623387198272244884845 (0x106FA4D4D262697A054D96271829256D) \nComplete name : The.Overture.2004.DVDRip.x264-HANDJOB.mkv \nFormat : Matroska \nFormat version : Version 2 \nFile size : 1.80 GiB \nDuration : 1h 40mn \nOverall bit rate : 2 554 Kbps \nWriting application : HandBrake 0.9.5 \nWriting library : libmkv 0.6.4.1 \n\nVideo \nID : 1 \nFormat : AVC \nFormat/Info : Advanced Video Codec \nFormat profile : &lt;a class=&quot;__cf_email__&quot; href=&quot;/cdn-cgi/l/email-protection&quot; data-cfemail=&quot;f5bd9c929db5b9c6dbc4&quot;&gt;[email&amp;#160;protected]&lt;/a&gt;&lt;script cf-hash='f9e31' type=&quot;text/javascript&quot;&gt;\n/* &lt;![CDATA[ */!function(){try{var t=&quot;currentScript&quot;in document?document.currentScript:function(){for(var t=document.getElementsByTagName(&quot;script&quot;),e=t.length;e--;)if(t[e].getAttribute(&quot;cf-hash&quot;))return t[e]}();if(t&amp;&amp;t.previousSibling){var e,r,n,i,c=t.previousSibling,a=c.getAttribute(&quot;data-cfemail&quot;);if(a){for(e=&quot;&quot;,r=parseInt(a.substr(0,2),16),n=2;a.length-n;n+=2)i=parseInt(a.substr(n,2),16)^r,e+=String.fromCharCode(i);e=document.createTextNode(e),c.parentNode.replaceChild(e,c)}}}catch(u){}}();/* ]]&gt; */&lt;/script&gt; \nFormat settings, CABAC : Yes \nFormat settings, ReFrames : 9 frames \nCodec ID : V_MPEG4/ISO/AVC \nDuration : 1h 40mn \nBit rate : 2 311 Kbps \nWidth : 712 pixels \nHeight : 476 pixels \nDisplay aspect ratio : 16:9 \nOriginal display aspect ratio : 16:9 \nFrame rate mode : Constant \nFrame rate : 23.976 fps \nColor space : YUV \nChroma subsampling : 4:2:0 \nBit depth : 8 bits \nScan type : Progressive \nBits/(Pixel*Frame) : 0.284 \nStream size : 1.63 GiB (90%) \nWriting library : x264 core 112 \nEncoding settings : cabac=1 / ref=9 / deblock=1:-2:-2 / analyse=0x3:0x133 / me=umh / subme=9 / psy=1 / psy_rd=1.00:0.00 / mixed_ref=1 / me_range=24 / chroma_me=1 / trellis=2 / 8x8dct=1 / cqm=0 / deadzone=21,11 / fast_pskip=0 / chroma_qp_offset=-2 / threads=12 / sliced_threads=0 / nr=0 / decimate=1 / interlaced=0 / constrained_intra=0 / bframes=6 / b_pyramid=2 / b_adapt=2 / b_bias=0 / direct=3 / weightb=1 / open_gop=0 / weightp=2 / keyint=240 / keyint_min=23 / scenecut=40 / intra_refresh=0 / rc_lookahead=50 / rc=crf / mbtree=1 / crf=18.5 / qcomp=0.60 / qpmin=3 / qpmax=51 / qpstep=4 / ip_ratio=1.40 / aq=1:1.20 \nLanguage : English \nDefault : Yes \nForced : No \nColor primaries : BT.601 NTSC \nTransfer characteristics : BT.709 \nMatrix coefficients : BT.601 \n\nAudio \nID : 2 \nFormat : AC-3 \nFormat/Info : Audio Coding 3 \nMode extension : CM (complete main) \nFormat settings, Endianness : Big \nCodec ID : A_AC3 \nDuration : 1h 40mn \nBit rate mode : Constant \nBit rate : 192 Kbps \nChannel(s) : 2 channels \nChannel positions : Front: L R \nSampling rate : 48.0 KHz \nBit depth : 16 bits \nCompression mode : Lossy \nStream size : 138 MiB (8%) \nLanguage : Thai \nDefault : Yes \nForced : No \n\nText \nID : 3 \nFormat : VobSub \nCodec ID : S_VOBSUB \nCodec ID/Info : The same subtitle format used on DVDs \nLanguage : English \nDefault : No \nForced : No \n\nMenu \n00:00:00.000 : Chapter 1 \n00:09:00.706 : Chapter 2 \n00:15:16.707 : Chapter 3 \n00:23:42.504 : Chapter 4 \n00:31:17.625 : Chapter 5 \n00:41:07.089 : Chapter 6 \n00:47:07.282 : Chapter 7 \n00:56:18.958 : Chapter 8 \n01:05:10.781 : Chapter 9 \n01:15:53.549 : Chapter 10 \n01:25:00.386 : Chapter 11 \n01:33:43.492 : Chapter 12 \n\n","torrent":{"xt":"urn:btih:8910b73b71f2eeefe78be024dfc0b20f6b6a4b15","amp;dn":"Ittisoontorn+Vichailak+-+The.Overture.2004.DVDRip.x264-HANDJOB","amp;tr":["udp%3A%2F%2Ftracker.openbittorrent.com%3A80","udp%3A%2F%2Fopen.demonii.com%3A1337","udp%3A%2F%2Ftracker.coppersurfer.tk%3A6969","udp%3A%2F%2Fexodus.desync.com%3A6969"],"infoHash":"8910b73b71f2eeefe78be024dfc0b20f6b6a4b15","infoHashBuffer":{"type":"Buffer","data":[137,16,183,59,113,242,238,239,231,139,224,36,223,192,178,15,107,106,75,21]},"announce":[],"urlList":[]}}